<?xml version="1.0" encoding="UTF-8" standalone="no"?>
<!DOCTYPE svg PUBLIC "-//W3C//DTD SVG 1.1//EN"
 "http://www.w3.org/Graphics/SVG/1.1/DTD/svg11.dtd">
<!-- Generated by graphviz version 2.40.1 (20161225.0304)
 -->
<!-- Title: G Pages: 1 -->
<svg width="692pt" height="461pt"
 viewBox="0.00 0.00 692.00 461.00" xmlns="http://www.w3.org/2000/svg" xmlns:xlink="http://www.w3.org/1999/xlink">
<g id="graph0" class="graph" transform="scale(1 1) rotate(0) translate(4 457)">
<title>G</title>
<polygon fill="#ffffff" stroke="transparent" points="-4,4 -4,-457 688,-457 688,4 -4,4"/>
<g id="clust1" class="cluster">
<title>cluster_root</title>
<g id="a_clust1"><a xlink:title="eventq_index=0&#10;full_system=false&#10;sim_quantum=0&#10;time_sync_enable=false&#10;time_sync_period=100000000000&#10;time_sync_spin_threshold=100000000">
<path fill="#bab6ae" stroke="#000000" d="M20,-8C20,-8 664,-8 664,-8 670,-8 676,-14 676,-20 676,-20 676,-433 676,-433 676,-439 670,-445 664,-445 664,-445 20,-445 20,-445 14,-445 8,-439 8,-433 8,-433 8,-20 8,-20 8,-14 14,-8 20,-8"/>
<text text-anchor="middle" x="342" y="-429.8" font-family="Arial" font-size="14.00" fill="#000000">root </text>
<text text-anchor="middle" x="342" y="-414.8" font-family="Arial" font-size="14.00" fill="#000000">: Root</text>
</a>
</g>
</g>
<g id="clust2" class="cluster">
<title>cluster_system</title>
<g id="a_clust2"><a xlink:title="byte_order=little&#10;cache_line_size=64&#10;eventq_index=0&#10;exit_on_work_items=false&#10;init_param=0&#10;kvm_vm=Null&#10;m5ops_base=4294901760&#10;mem_mode=timing&#10;mem_ranges=0:536870912&#10;memories=system.mem_ctrl.dram&#10;mmap_using_noreserve=false&#10;multi_thread=false&#10;&#10;um_work_ids=16&#10;&#13;eadfile=&#10;&#13;edirect_paths=&#10;shared_backstore=&#10;symbolfile=&#10;thermal_components=&#10;thermal_model=Null&#10;work_begin_ckpt_count=0&#10;work_begin_cpu_id_exit=&#45;1&#10;work_begin_exit_count=0&#10;work_cpus_ckpt_count=0&#10;work_end_ckpt_count=0&#10;work_end_exit_count=0&#10;work_item_id=&#45;1&#10;workload=system.workload">
<path fill="#e4e7eb" stroke="#000000" d="M28,-16C28,-16 656,-16 656,-16 662,-16 668,-22 668,-28 668,-28 668,-387 668,-387 668,-393 662,-399 656,-399 656,-399 28,-399 28,-399 22,-399 16,-393 16,-387 16,-387 16,-28 16,-28 16,-22 22,-16 28,-16"/>
<text text-anchor="middle" x="342" y="-383.8" font-family="Arial" font-size="14.00" fill="#000000">system </text>
<text text-anchor="middle" x="342" y="-368.8" font-family="Arial" font-size="14.00" fill="#000000">: System</text>
</a>
</g>
</g>
<g id="clust6" class="cluster">
<title>cluster_system_cpu</title>
<g id="a_clust6"><a xlink:title="branchPred=Null&#10;checker=Null&#10;clk_domain=system.clk_domain&#10;cpu_id=&#45;1&#10;do_checkpoint_insts=true&#10;do_statistics_insts=true&#10;eventq_index=0&#10;function_trace=false&#10;function_trace_start=0&#10;interrupts=system.cpu.interrupts&#10;isa=system.cpu.isa&#10;max_insts_all_threads=0&#10;max_insts_any_thread=0&#10;mmu=system.cpu.mmu&#10;&#10;umThreads=1&#10;power_gating_on_idle=false&#10;power_model=&#10;power_state=system.cpu.power_state&#10;progress_interval=0&#10;pwr_gating_latency=300&#10;simpoint_start_insts=&#10;socket_id=0&#10;switched_out=false&#10;syscallRetryLatency=10000&#10;system=system&#10;tracer=system.cpu.tracer&#10;wait_for_remote_gdb=false&#10;workload=system.cpu.workload">
<path fill="#bbc6d9" stroke="#000000" d="M36,-24C36,-24 560,-24 560,-24 566,-24 572,-30 572,-36 572,-36 572,-157 572,-157 572,-163 566,-169 560,-169 560,-169 36,-169 36,-169 30,-169 24,-163 24,-157 24,-157 24,-36 24,-36 24,-30 30,-24 36,-24"/>
<text text-anchor="middle" x="298" y="-153.8" font-family="Arial" font-size="14.00" fill="#000000">cpu </text>
<text text-anchor="middle" x="298" y="-138.8" font-family="Arial" font-size="14.00" fill="#000000">: TimingSimpleCPU</text>
</a>
</g>
</g>
<g id="clust16" class="cluster">
<title>cluster_system_cpu_interrupts</title>
<g id="a_clust16"><a xlink:title="clk_domain=system.cpu.interrupts.clk_domain&#10;eventq_index=0&#10;int_latency=1000&#10;pio_latency=100000&#10;system=system">
<path fill="#bab6ae" stroke="#000000" d="M262,-32C262,-32 552,-32 552,-32 558,-32 564,-38 564,-44 564,-44 564,-111 564,-111 564,-117 558,-123 552,-123 552,-123 262,-123 262,-123 256,-123 250,-117 250,-111 250,-111 250,-44 250,-44 250,-38 256,-32 262,-32"/>
<text text-anchor="middle" x="407" y="-107.8" font-family="Arial" font-size="14.00" fill="#000000">interrupts </text>
<text text-anchor="middle" x="407" y="-92.8" font-family="Arial" font-size="14.00" fill="#000000">: X86LocalApic</text>
</a>
</g>
</g>
<g id="clust20" class="cluster">
<title>cluster_system_membus</title>
<g id="a_clust20"><a xlink:title="clk_domain=system.clk_domain&#10;eventq_index=0&#10;forward_latency=4&#10;frontend_latency=3&#10;header_latency=1&#10;max_outstanding_snoops=512&#10;max_routing_table_size=512&#10;point_of_coherency=true&#10;point_of_unification=true&#10;power_model=&#10;power_state=system.membus.power_state&#10;&#13;esponse_latency=2&#10;snoop_filter=system.membus.snoop_filter&#10;snoop_response_latency=4&#10;system=system&#10;use_default_range=false&#10;width=16">
<path fill="#6f798c" stroke="#000000" d="M233,-177C233,-177 485,-177 485,-177 491,-177 497,-183 497,-189 497,-189 497,-256 497,-256 497,-262 491,-268 485,-268 485,-268 233,-268 233,-268 227,-268 221,-262 221,-256 221,-256 221,-189 221,-189 221,-183 227,-177 233,-177"/>
<text text-anchor="middle" x="359" y="-252.8" font-family="Arial" font-size="14.00" fill="#000000">membus </text>
<text text-anchor="middle" x="359" y="-237.8" font-family="Arial" font-size="14.00" fill="#000000">: SystemXBar</text>
</a>
</g>
</g>
<g id="clust23" class="cluster">
<title>cluster_system_mem_ctrl</title>
<g id="a_clust23"><a xlink:title="clk_domain=system.clk_domain&#10;command_window=10000&#10;dram=system.mem_ctrl.dram&#10;eventq_index=0&#10;mem_sched_policy=frfcfs&#10;min_writes_per_switch=16&#10;&#10;vm=Null&#10;power_model=&#10;power_state=system.mem_ctrl.power_state&#10;qos_policy=Null&#10;qos_priorities=1&#10;qos_priority_escalation=false&#10;qos_q_policy=fifo&#10;qos_requestors= &#160;&#160;&#160;&#160;&#160;&#160;&#160;&#160;&#160;&#160;&#160;&#160;&#160;&#160;&#10;qos_syncro_scheduler=false&#10;qos_turnaround_policy=Null&#10;static_backend_latency=10000&#10;static_frontend_latency=10000&#10;system=system&#10;write_high_thresh_perc=85&#10;write_low_thresh_perc=50">
<path fill="#bab6ae" stroke="#000000" d="M592,-32C592,-32 648,-32 648,-32 654,-32 660,-38 660,-44 660,-44 660,-111 660,-111 660,-117 654,-123 648,-123 648,-123 592,-123 592,-123 586,-123 580,-117 580,-111 580,-111 580,-44 580,-44 580,-38 586,-32 592,-32"/>
<text text-anchor="middle" x="620" y="-107.8" font-family="Arial" font-size="14.00" fill="#000000">mem_ctrl </text>
<text text-anchor="middle" x="620" y="-92.8" font-family="Arial" font-size="14.00" fill="#000000">: MemCtrl</text>
</a>
</g>
</g>
<!-- system_system_port -->
<g id="node1" class="node">
<title>system_system_port</title>
<path fill="#b6b8bc" stroke="#000000" d="M251,-316.5C251,-316.5 323,-316.5 323,-316.5 329,-316.5 335,-322.5 335,-328.5 335,-328.5 335,-340.5 335,-340.5 335,-346.5 329,-352.5 323,-352.5 323,-352.5 251,-352.5 251,-352.5 245,-352.5 239,-346.5 239,-340.5 239,-340.5 239,-328.5 239,-328.5 239,-322.5 245,-316.5 251,-316.5"/>
<text text-anchor="middle" x="287" y="-330.8" font-family="Arial" font-size="14.00" fill="#000000">system_port</text>
</g>
<!-- system_membus_cpu_side_ports -->
<g id="node7" class="node">
<title>system_membus_cpu_side_ports</title>
<path fill="#586070" stroke="#000000" d="M241,-185.5C241,-185.5 333,-185.5 333,-185.5 339,-185.5 345,-191.5 345,-197.5 345,-197.5 345,-209.5 345,-209.5 345,-215.5 339,-221.5 333,-221.5 333,-221.5 241,-221.5 241,-221.5 235,-221.5 229,-215.5 229,-209.5 229,-209.5 229,-197.5 229,-197.5 229,-191.5 235,-185.5 241,-185.5"/>
<text text-anchor="middle" x="287" y="-199.8" font-family="Arial" font-size="14.00" fill="#000000">cpu_side_ports</text>
</g>
<!-- system_system_port&#45;&gt;system_membus_cpu_side_ports -->
<g id="edge1" class="edge">
<title>system_system_port&#45;&gt;system_membus_cpu_side_ports</title>
<path fill="none" stroke="#000000" d="M287,-316.285C287,-294.3856 287,-257.3861 287,-231.7663"/>
<polygon fill="#000000" stroke="#000000" points="290.5001,-231.5603 287,-221.5603 283.5001,-231.5603 290.5001,-231.5603"/>
</g>
<!-- system_cpu_icache_port -->
<g id="node2" class="node">
<title>system_cpu_icache_port</title>
<path fill="#959ead" stroke="#000000" d="M160,-40.5C160,-40.5 228,-40.5 228,-40.5 234,-40.5 240,-46.5 240,-52.5 240,-52.5 240,-64.5 240,-64.5 240,-70.5 234,-76.5 228,-76.5 228,-76.5 160,-76.5 160,-76.5 154,-76.5 148,-70.5 148,-64.5 148,-64.5 148,-52.5 148,-52.5 148,-46.5 154,-40.5 160,-40.5"/>
<text text-anchor="middle" x="194" y="-54.8" font-family="Arial" font-size="14.00" fill="#000000">icache_port</text>
</g>
<!-- system_cpu_dcache_port -->
<g id="node3" class="node">
<title>system_cpu_dcache_port</title>
<path fill="#959ead" stroke="#000000" d="M44,-40.5C44,-40.5 118,-40.5 118,-40.5 124,-40.5 130,-46.5 130,-52.5 130,-52.5 130,-64.5 130,-64.5 130,-70.5 124,-76.5 118,-76.5 118,-76.5 44,-76.5 44,-76.5 38,-76.5 32,-70.5 32,-64.5 32,-64.5 32,-52.5 32,-52.5 32,-46.5 38,-40.5 44,-40.5"/>
<text text-anchor="middle" x="81" y="-54.8" font-family="Arial" font-size="14.00" fill="#000000">dcache_port</text>
</g>
<!-- system_cpu_interrupts_int_requestor -->
<g id="node4" class="node">
<title>system_cpu_interrupts_int_requestor</title>
<path fill="#94918b" stroke="#000000" d="M270.5,-40.5C270.5,-40.5 347.5,-40.5 347.5,-40.5 353.5,-40.5 359.5,-46.5 359.5,-52.5 359.5,-52.5 359.5,-64.5 359.5,-64.5 359.5,-70.5 353.5,-76.5 347.5,-76.5 347.5,-76.5 270.5,-76.5 270.5,-76.5 264.5,-76.5 258.5,-70.5 258.5,-64.5 258.5,-64.5 258.5,-52.5 258.5,-52.5 258.5,-46.5 264.5,-40.5 270.5,-40.5"/>
<text text-anchor="middle" x="309" y="-54.8" font-family="Arial" font-size="14.00" fill="#000000">int_requestor</text>
</g>
<!-- system_cpu_interrupts_int_responder -->
<g id="node5" class="node">
<title>system_cpu_interrupts_int_responder</title>
<path fill="#94918b" stroke="#000000" d="M462,-40.5C462,-40.5 544,-40.5 544,-40.5 550,-40.5 556,-46.5 556,-52.5 556,-52.5 556,-64.5 556,-64.5 556,-70.5 550,-76.5 544,-76.5 544,-76.5 462,-76.5 462,-76.5 456,-76.5 450,-70.5 450,-64.5 450,-64.5 450,-52.5 450,-52.5 450,-46.5 456,-40.5 462,-40.5"/>
<text text-anchor="middle" x="503" y="-54.8" font-family="Arial" font-size="14.00" fill="#000000">int_responder</text>
</g>
<!-- system_cpu_interrupts_pio -->
<g id="node6" class="node">
<title>system_cpu_interrupts_pio</title>
<path fill="#94918b" stroke="#000000" d="M390,-40.5C390,-40.5 420,-40.5 420,-40.5 426,-40.5 432,-46.5 432,-52.5 432,-52.5 432,-64.5 432,-64.5 432,-70.5 426,-76.5 420,-76.5 420,-76.5 390,-76.5 390,-76.5 384,-76.5 378,-70.5 378,-64.5 378,-64.5 378,-52.5 378,-52.5 378,-46.5 384,-40.5 390,-40.5"/>
<text text-anchor="middle" x="405" y="-54.8" font-family="Arial" font-size="14.00" fill="#000000">pio</text>
</g>
<!-- system_membus_cpu_side_ports&#45;&gt;system_cpu_icache_port -->
<g id="edge2" class="edge">
<title>system_membus_cpu_side_ports&#45;&gt;system_cpu_icache_port</title>
<path fill="none" stroke="#000000" d="M254.5561,-178.5864C251.4736,-175.5363 248.552,-172.3185 246,-169 223.64,-139.9239 207.7536,-99.6828 199.8026,-76.6454"/>
<polygon fill="#000000" stroke="#000000" points="252.2088,-181.1827 261.9423,-185.367 256.9427,-176.026 252.2088,-181.1827"/>
</g>
<!-- system_membus_cpu_side_ports&#45;&gt;system_cpu_dcache_port -->
<g id="edge3" class="edge">
<title>system_membus_cpu_side_ports&#45;&gt;system_cpu_dcache_port</title>
<path fill="none" stroke="#000000" d="M218.8986,-193.2471C186.3886,-187.25 151.8146,-178.9092 139,-169 108.663,-145.5413 92.5499,-101.6979 85.4941,-76.8722"/>
<polygon fill="#000000" stroke="#000000" points="218.4357,-196.7198 228.8953,-195.0322 219.6663,-189.8288 218.4357,-196.7198"/>
</g>
<!-- system_membus_cpu_side_ports&#45;&gt;system_cpu_interrupts_int_requestor -->
<g id="edge4" class="edge">
<title>system_membus_cpu_side_ports&#45;&gt;system_cpu_interrupts_int_requestor</title>
<path fill="none" stroke="#000000" d="M291.2521,-175.4751C295.6687,-146.3655 302.4505,-101.6674 306.2236,-76.7989"/>
<polygon fill="#000000" stroke="#000000" points="287.7816,-175.0169 289.7418,-185.4288 294.7024,-176.067 287.7816,-175.0169"/>
</g>
<!-- system_membus_mem_side_ports -->
<g id="node8" class="node">
<title>system_membus_mem_side_ports</title>
<path fill="#586070" stroke="#000000" d="M375.5,-185.5C375.5,-185.5 476.5,-185.5 476.5,-185.5 482.5,-185.5 488.5,-191.5 488.5,-197.5 488.5,-197.5 488.5,-209.5 488.5,-209.5 488.5,-215.5 482.5,-221.5 476.5,-221.5 476.5,-221.5 375.5,-221.5 375.5,-221.5 369.5,-221.5 363.5,-215.5 363.5,-209.5 363.5,-209.5 363.5,-197.5 363.5,-197.5 363.5,-191.5 369.5,-185.5 375.5,-185.5"/>
<text text-anchor="middle" x="426" y="-199.8" font-family="Arial" font-size="14.00" fill="#000000">mem_side_ports</text>
</g>
<!-- system_membus_mem_side_ports&#45;&gt;system_cpu_interrupts_int_responder -->
<g id="edge6" class="edge">
<title>system_membus_mem_side_ports&#45;&gt;system_cpu_interrupts_int_responder</title>
<path fill="none" stroke="#000000" d="M435.5964,-185.4288C448.9107,-160.3565 473.0932,-114.8179 488.5835,-85.6479"/>
<polygon fill="#000000" stroke="#000000" points="491.6837,-87.2724 493.2826,-76.7989 485.5013,-83.9893 491.6837,-87.2724"/>
</g>
<!-- system_membus_mem_side_ports&#45;&gt;system_cpu_interrupts_pio -->
<g id="edge5" class="edge">
<title>system_membus_mem_side_ports&#45;&gt;system_cpu_interrupts_pio</title>
<path fill="none" stroke="#000000" d="M423.3828,-185.4288C419.7988,-160.6821 413.3272,-115.9973 409.0975,-86.7926"/>
<polygon fill="#000000" stroke="#000000" points="412.5475,-86.194 407.6502,-76.7989 405.6197,-87.1974 412.5475,-86.194"/>
</g>
<!-- system_mem_ctrl_port -->
<g id="node9" class="node">
<title>system_mem_ctrl_port</title>
<path fill="#94918b" stroke="#000000" d="M600,-40.5C600,-40.5 630,-40.5 630,-40.5 636,-40.5 642,-46.5 642,-52.5 642,-52.5 642,-64.5 642,-64.5 642,-70.5 636,-76.5 630,-76.5 630,-76.5 600,-76.5 600,-76.5 594,-76.5 588,-70.5 588,-64.5 588,-64.5 588,-52.5 588,-52.5 588,-46.5 594,-40.5 600,-40.5"/>
<text text-anchor="middle" x="615" y="-54.8" font-family="Arial" font-size="14.00" fill="#000000">port</text>
</g>
<!-- system_membus_mem_side_ports&#45;&gt;system_mem_ctrl_port -->
<g id="edge7" class="edge">
<title>system_membus_mem_side_ports&#45;&gt;system_mem_ctrl_port</title>
<path fill="none" stroke="#000000" d="M488.854,-193.9155C520.9469,-187.9259 555.7631,-179.3802 568,-169 592.6219,-148.114 604.6543,-112.0561 610.3184,-86.828"/>
<polygon fill="#000000" stroke="#000000" points="613.8038,-87.2527 612.3741,-76.7548 606.9451,-85.853 613.8038,-87.2527"/>
</g>
</g>
</svg>
