<?xml version="1.0" encoding="UTF-8" standalone="no"?>
<!DOCTYPE svg PUBLIC "-//W3C//DTD SVG 1.1//EN"
 "http://www.w3.org/Graphics/SVG/1.1/DTD/svg11.dtd">
<!-- Generated by graphviz version 2.40.1 (20161225.0304)
 -->
<!-- Title: G Pages: 1 -->
<svg width="299pt" height="287pt"
 viewBox="0.00 0.00 299.22 286.69" xmlns="http://www.w3.org/2000/svg" xmlns:xlink="http://www.w3.org/1999/xlink">
<g id="graph0" class="graph" transform="scale(1 1) rotate(0) translate(4 282.6881)">
<title>G</title>
<polygon fill="#ffffff" stroke="transparent" points="-4,4 -4,-282.6881 295.2171,-282.6881 295.2171,4 -4,4"/>
<!-- system.caches.network.routers0 -->
<g id="node1" class="node">
<title>system.caches.network.routers0</title>
<path fill="#cce6fc" stroke="#000000" d="M126.9922,-164.2322C126.9922,-164.2322 156.9922,-164.2322 156.9922,-164.2322 162.9922,-164.2322 168.9922,-170.2322 168.9922,-176.2322 168.9922,-176.2322 168.9922,-188.2322 168.9922,-188.2322 168.9922,-194.2322 162.9922,-200.2322 156.9922,-200.2322 156.9922,-200.2322 126.9922,-200.2322 126.9922,-200.2322 120.9922,-200.2322 114.9922,-194.2322 114.9922,-188.2322 114.9922,-188.2322 114.9922,-176.2322 114.9922,-176.2322 114.9922,-170.2322 120.9922,-164.2322 126.9922,-164.2322"/>
<text text-anchor="middle" x="141.9922" y="-178.5322" font-family="Arial" font-size="14.00" fill="#000000">R 0</text>
</g>
<!-- system.caches.network.routers1 -->
<g id="node2" class="node">
<title>system.caches.network.routers1</title>
<path fill="#cce6fc" stroke="#000000" d="M117.2763,-74.0369C117.2763,-74.0369 147.2763,-74.0369 147.2763,-74.0369 153.2763,-74.0369 159.2763,-80.0369 159.2763,-86.0369 159.2763,-86.0369 159.2763,-98.0369 159.2763,-98.0369 159.2763,-104.0369 153.2763,-110.0369 147.2763,-110.0369 147.2763,-110.0369 117.2763,-110.0369 117.2763,-110.0369 111.2763,-110.0369 105.2763,-104.0369 105.2763,-98.0369 105.2763,-98.0369 105.2763,-86.0369 105.2763,-86.0369 105.2763,-80.0369 111.2763,-74.0369 117.2763,-74.0369"/>
<text text-anchor="middle" x="132.2763" y="-88.3369" font-family="Arial" font-size="14.00" fill="#000000">R 1</text>
</g>
<!-- system.caches.network.routers0&#45;&#45;system.caches.network.routers1 -->
<g id="edge1" class="edge">
<title>system.caches.network.routers0&#45;&#45;system.caches.network.routers1</title>
<path fill="none" stroke="#000000" d="M140.026,-163.9798C138.3404,-148.3314 135.9244,-125.9027 134.2396,-110.2621"/>
</g>
<!-- system.caches.network.routers2 -->
<g id="node3" class="node">
<title>system.caches.network.routers2</title>
<path fill="#cce6fc" stroke="#000000" d="M168.64,-98.4214C168.64,-98.4214 198.64,-98.4214 198.64,-98.4214 204.64,-98.4214 210.64,-104.4214 210.64,-110.4214 210.64,-110.4214 210.64,-122.4214 210.64,-122.4214 210.64,-128.4214 204.64,-134.4214 198.64,-134.4214 198.64,-134.4214 168.64,-134.4214 168.64,-134.4214 162.64,-134.4214 156.64,-128.4214 156.64,-122.4214 156.64,-122.4214 156.64,-110.4214 156.64,-110.4214 156.64,-104.4214 162.64,-98.4214 168.64,-98.4214"/>
<text text-anchor="middle" x="183.64" y="-112.7214" font-family="Arial" font-size="14.00" fill="#000000">R 2</text>
</g>
<!-- system.caches.network.routers0&#45;&#45;system.caches.network.routers2 -->
<g id="edge2" class="edge">
<title>system.caches.network.routers0&#45;&#45;system.caches.network.routers2</title>
<path fill="none" stroke="#000000" d="M161.0197,-164.0946C167.6429,-154.8461 174.4714,-143.6704 179.0574,-134.4355"/>
</g>
<!-- system.caches.network.routers3 -->
<g id="node4" class="node">
<title>system.caches.network.routers3</title>
<path fill="#cce6fc" stroke="#000000" d="M90.5559,-122.5151C90.5559,-122.5151 120.5559,-122.5151 120.5559,-122.5151 126.5559,-122.5151 132.5559,-128.5151 132.5559,-134.5151 132.5559,-134.5151 132.5559,-146.5151 132.5559,-146.5151 132.5559,-152.5151 126.5559,-158.5151 120.5559,-158.5151 120.5559,-158.5151 90.5559,-158.5151 90.5559,-158.5151 84.5559,-158.5151 78.5559,-152.5151 78.5559,-146.5151 78.5559,-146.5151 78.5559,-134.5151 78.5559,-134.5151 78.5559,-128.5151 84.5559,-122.5151 90.5559,-122.5151"/>
<text text-anchor="middle" x="105.5559" y="-136.8151" font-family="Arial" font-size="14.00" fill="#000000">R 3</text>
</g>
<!-- system.caches.network.routers0&#45;&#45;system.caches.network.routers3 -->
<g id="edge3" class="edge">
<title>system.caches.network.routers0&#45;&#45;system.caches.network.routers3</title>
<path fill="none" stroke="#000000" d="M134.4971,-163.8808C133.2132,-162.1687 131.8328,-160.4355 130.3943,-158.7256"/>
</g>
<!-- system.caches.network.routers4 -->
<g id="node5" class="node">
<title>system.caches.network.routers4</title>
<path fill="#cce6fc" stroke="#000000" d="M172.0173,-129.5661C172.0173,-129.5661 202.0173,-129.5661 202.0173,-129.5661 208.0173,-129.5661 214.0173,-135.5661 214.0173,-141.5661 214.0173,-141.5661 214.0173,-153.5661 214.0173,-153.5661 214.0173,-159.5661 208.0173,-165.5661 202.0173,-165.5661 202.0173,-165.5661 172.0173,-165.5661 172.0173,-165.5661 166.0173,-165.5661 160.0173,-159.5661 160.0173,-153.5661 160.0173,-153.5661 160.0173,-141.5661 160.0173,-141.5661 160.0173,-135.5661 166.0173,-129.5661 172.0173,-129.5661"/>
<text text-anchor="middle" x="187.0173" y="-143.8661" font-family="Arial" font-size="14.00" fill="#000000">R 4</text>
</g>
<!-- system.caches.network.routers0&#45;&#45;system.caches.network.routers4 -->
<g id="edge4" class="edge">
<title>system.caches.network.routers0&#45;&#45;system.caches.network.routers4</title>
<path fill="none" stroke="#000000" d="M169.1492,-169.84C170.8735,-168.4988 172.5612,-167.1186 174.1713,-165.731"/>
</g>
<!-- system.caches.network.routers1&#45;&#45;system.caches.network.routers2 -->
<g id="edge5" class="edge">
<title>system.caches.network.routers1&#45;&#45;system.caches.network.routers2</title>
<path fill="none" stroke="#000000" d="M159.4622,-104.9432C159.5584,-104.9889 159.6547,-105.0345 159.7509,-105.0802"/>
</g>
<!-- system.caches.network.routers1&#45;&#45;system.caches.network.routers3 -->
<g id="edge6" class="edge">
<title>system.caches.network.routers1&#45;&#45;system.caches.network.routers3</title>
<path fill="none" stroke="#000000" d="M114.6032,-110.2028C112.2625,-114.2039 110.0863,-118.4359 108.3301,-122.435"/>
</g>
<!-- system.caches.network.routers1&#45;&#45;system.caches.network.routers4 -->
<g id="edge7" class="edge">
<title>system.caches.network.routers1&#45;&#45;system.caches.network.routers4</title>
<path fill="none" stroke="#000000" d="M141.8508,-110.228C146.9164,-116.3843 153.3277,-123.2218 159.7357,-129.3723"/>
</g>
<!-- system.caches.network.routers2&#45;&#45;system.caches.network.routers0 -->
<g id="edge8" class="edge">
<title>system.caches.network.routers2&#45;&#45;system.caches.network.routers0</title>
<path fill="none" stroke="#000000" d="M164.6125,-134.559C157.9893,-143.8075 151.1608,-154.9832 146.5748,-164.2181"/>
</g>
<!-- system.caches.network.routers2&#45;&#45;system.caches.network.routers3 -->
<g id="edge9" class="edge">
<title>system.caches.network.routers2&#45;&#45;system.caches.network.routers3</title>
<path fill="none" stroke="#000000" d="M156.33,-124.8482C148.6776,-127.2094 140.3624,-129.7752 132.7186,-132.1337"/>
</g>
<!-- system.caches.network.routers2&#45;&#45;system.caches.network.routers4 -->
<g id="edge10" class="edge">
<title>system.caches.network.routers2&#45;&#45;system.caches.network.routers4</title>
<path fill="none" stroke="#000000" d="M178.8564,-134.5382C178.8736,-134.6491 178.8911,-134.7598 178.9092,-134.8704"/>
</g>
<!-- system.caches.network.routers3&#45;&#45;system.caches.network.routers0 -->
<g id="edge11" class="edge">
<title>system.caches.network.routers3&#45;&#45;system.caches.network.routers0</title>
<path fill="none" stroke="#000000" d="M113.0509,-158.8665C114.3348,-160.5786 115.7153,-162.3118 117.1538,-164.0217"/>
</g>
<!-- system.caches.network.routers3&#45;&#45;system.caches.network.routers1 -->
<g id="edge12" class="edge">
<title>system.caches.network.routers3&#45;&#45;system.caches.network.routers1</title>
<path fill="none" stroke="#000000" d="M123.2291,-122.3492C125.5697,-118.348 127.7459,-114.1161 129.5021,-110.1169"/>
</g>
<!-- system.caches.network.routers3&#45;&#45;system.caches.network.routers4 -->
<g id="edge13" class="edge">
<title>system.caches.network.routers3&#45;&#45;system.caches.network.routers4</title>
<path fill="none" stroke="#000000" d="M132.6814,-142.863C141.4752,-143.6241 151.225,-144.468 160.0103,-145.2284"/>
</g>
<!-- system.caches.network.routers4&#45;&#45;system.caches.network.routers0 -->
<g id="edge14" class="edge">
<title>system.caches.network.routers4&#45;&#45;system.caches.network.routers0</title>
<path fill="none" stroke="#000000" d="M159.8603,-159.9583C158.136,-161.2995 156.4483,-162.6797 154.8382,-164.0673"/>
</g>
<!-- system.caches.network.routers4&#45;&#45;system.caches.network.routers1 -->
<g id="edge15" class="edge">
<title>system.caches.network.routers4&#45;&#45;system.caches.network.routers1</title>
<path fill="none" stroke="#000000" d="M177.4428,-129.3749C172.3772,-123.2186 165.966,-116.3811 159.5579,-110.2306"/>
</g>
<!-- system.caches.network.routers4&#45;&#45;system.caches.network.routers2 -->
<g id="edge16" class="edge">
<title>system.caches.network.routers4&#45;&#45;system.caches.network.routers2</title>
<path fill="none" stroke="#000000" d="M191.8009,-129.4493C191.7837,-129.3384 191.7662,-129.2276 191.7482,-129.1171"/>
</g>
<!-- system.caches.controllers0 -->
<g id="node6" class="node">
<title>system.caches.controllers0</title>
<path fill="#e5bcd0" stroke="#000000" d="M116.5983,-242.1881C116.5983,-242.1881 146.5983,-242.1881 146.5983,-242.1881 152.5983,-242.1881 158.5983,-248.1881 158.5983,-254.1881 158.5983,-254.1881 158.5983,-266.1881 158.5983,-266.1881 158.5983,-272.1881 152.5983,-278.1881 146.5983,-278.1881 146.5983,-278.1881 116.5983,-278.1881 116.5983,-278.1881 110.5983,-278.1881 104.5983,-272.1881 104.5983,-266.1881 104.5983,-266.1881 104.5983,-254.1881 104.5983,-254.1881 104.5983,-248.1881 110.5983,-242.1881 116.5983,-242.1881"/>
<text text-anchor="middle" x="131.5983" y="-256.4881" font-family="Arial" font-size="14.00" fill="#000000">0</text>
</g>
<!-- system.caches.controllers0&#45;&#45;system.caches.network.routers0 -->
<g id="edge17" class="edge">
<title>system.caches.controllers0&#45;&#45;system.caches.network.routers0</title>
<path fill="none" stroke="#000000" d="M134.009,-242.1075C135.6761,-229.6035 137.8864,-213.026 139.5586,-200.4848"/>
</g>
<!-- system.caches.controllers1 -->
<g id="node7" class="node">
<title>system.caches.controllers1</title>
<path fill="#e5bcd0" stroke="#000000" d="M89.304,-.5C89.304,-.5 119.304,-.5 119.304,-.5 125.304,-.5 131.304,-6.5 131.304,-12.5 131.304,-12.5 131.304,-24.5 131.304,-24.5 131.304,-30.5 125.304,-36.5 119.304,-36.5 119.304,-36.5 89.304,-36.5 89.304,-36.5 83.304,-36.5 77.304,-30.5 77.304,-24.5 77.304,-24.5 77.304,-12.5 77.304,-12.5 77.304,-6.5 83.304,-.5 89.304,-.5"/>
<text text-anchor="middle" x="104.304" y="-14.8" font-family="Arial" font-size="14.00" fill="#000000">1</text>
</g>
<!-- system.caches.controllers1&#45;&#45;system.caches.network.routers1 -->
<g id="edge18" class="edge">
<title>system.caches.controllers1&#45;&#45;system.caches.network.routers1</title>
<path fill="none" stroke="#000000" d="M111.2185,-36.6777C115.522,-47.9912 121.0377,-62.4914 125.3444,-73.8135"/>
</g>
<!-- system.caches.controllers2 -->
<g id="node8" class="node">
<title>system.caches.controllers2</title>
<path fill="#e5bcd0" stroke="#000000" d="M249.2171,-148.0771C249.2171,-148.0771 279.2171,-148.0771 279.2171,-148.0771 285.2171,-148.0771 291.2171,-154.0771 291.2171,-160.0771 291.2171,-160.0771 291.2171,-172.0771 291.2171,-172.0771 291.2171,-178.0771 285.2171,-184.0771 279.2171,-184.0771 279.2171,-184.0771 249.2171,-184.0771 249.2171,-184.0771 243.2171,-184.0771 237.2171,-178.0771 237.2171,-172.0771 237.2171,-172.0771 237.2171,-160.0771 237.2171,-160.0771 237.2171,-154.0771 243.2171,-148.0771 249.2171,-148.0771"/>
<text text-anchor="middle" x="264.2171" y="-162.3771" font-family="Arial" font-size="14.00" fill="#000000">2</text>
</g>
<!-- system.caches.controllers2&#45;&#45;system.caches.network.routers2 -->
<g id="edge19" class="edge">
<title>system.caches.controllers2&#45;&#45;system.caches.network.routers2</title>
<path fill="none" stroke="#000000" d="M236.9373,-149.266C228.5366,-144.089 219.2905,-138.3911 210.8916,-133.2153"/>
</g>
<!-- system.caches.controllers3 -->
<g id="node9" class="node">
<title>system.caches.controllers3</title>
<path fill="#e5bcd0" stroke="#000000" d="M12,-131.3229C12,-131.3229 42,-131.3229 42,-131.3229 48,-131.3229 54,-137.3229 54,-143.3229 54,-143.3229 54,-155.3229 54,-155.3229 54,-161.3229 48,-167.3229 42,-167.3229 42,-167.3229 12,-167.3229 12,-167.3229 6,-167.3229 0,-161.3229 0,-155.3229 0,-155.3229 0,-143.3229 0,-143.3229 0,-137.3229 6,-131.3229 12,-131.3229"/>
<text text-anchor="middle" x="27" y="-145.6229" font-family="Arial" font-size="14.00" fill="#000000">3</text>
</g>
<!-- system.caches.controllers3&#45;&#45;system.caches.network.routers3 -->
<g id="edge20" class="edge">
<title>system.caches.controllers3&#45;&#45;system.caches.network.routers3</title>
<path fill="none" stroke="#000000" d="M54.0345,-146.2917C61.9344,-145.406 70.5685,-144.4379 78.4716,-143.5518"/>
</g>
<!-- system.caches.controllers4 -->
<g id="node10" class="node">
<title>system.caches.controllers4</title>
<path fill="#e5bcd0" stroke="#000000" d="M238.5089,-61.5218C238.5089,-61.5218 268.5089,-61.5218 268.5089,-61.5218 274.5089,-61.5218 280.5089,-67.5218 280.5089,-73.5218 280.5089,-73.5218 280.5089,-85.5218 280.5089,-85.5218 280.5089,-91.5218 274.5089,-97.5218 268.5089,-97.5218 268.5089,-97.5218 238.5089,-97.5218 238.5089,-97.5218 232.5089,-97.5218 226.5089,-91.5218 226.5089,-85.5218 226.5089,-85.5218 226.5089,-73.5218 226.5089,-73.5218 226.5089,-67.5218 232.5089,-61.5218 238.5089,-61.5218"/>
<text text-anchor="middle" x="253.5089" y="-75.8218" font-family="Arial" font-size="14.00" fill="#000000">4</text>
</g>
<!-- system.caches.controllers4&#45;&#45;system.caches.network.routers4 -->
<g id="edge21" class="edge">
<title>system.caches.controllers4&#45;&#45;system.caches.network.routers4</title>
<path fill="none" stroke="#000000" d="M235.6904,-97.7564C226.1503,-107.5193 214.4326,-119.5106 204.885,-129.2811"/>
</g>
</g>
</svg>
